<svg width="80" height="79" viewBox="0 0 80 79" fill="none" xmlns="http://www.w3.org/2000/svg">
<circle cx="39.7309" cy="39.7308" r="38.5956" fill="white"/>
<path d="M79.0794 37.6874C79.0275 37.2718 78.9802 36.8561 78.9322 36.4399C78.8289 35.5387 78.7183 34.6075 78.5862 33.6876C77.6474 27.1196 75.2417 21.107 71.433 15.8153C68.1618 11.2672 64.0364 7.58048 59.1722 4.86786C54.7605 2.4065 49.8849 0.856975 44.6848 0.260903C43.1839 0.0872792 41.6611 0 40.1628 0C37.5248 0 34.8792 0.268164 32.262 0.805858L32.2658 0.780264L31.8764 0.890837C31.2693 1.01931 30.6654 1.16677 30.066 1.32134C29.285 1.52652 28.4973 1.76312 27.7362 2.01317C27.0261 2.2157 26.441 2.4065 25.8856 2.60133C19.7582 4.80172 14.4156 8.49684 10.0002 13.5776C5.592 18.6598 2.58986 24.5067 1.0808 30.9575C0.0177104 35.4976 -0.261956 40.0501 0.24547 44.4869C0.764184 49.0206 1.9234 53.2488 3.69357 57.0536C5.61781 61.1824 8.23812 64.851 11.4871 67.953C15.1045 71.4082 19.3656 74.1011 24.5132 76.1878C26.7504 77.0971 28.947 77.5166 30.9896 77.8293C32.0564 78.0506 33.1524 78.2303 34.2535 78.37C34.6324 78.4219 35.011 78.4616 35.39 78.5031C36.5643 78.7052 38.0652 78.8082 39.8541 78.8082C40.5712 78.8082 41.2774 78.7901 41.9477 78.764L41.4109 78.9849L43.7546 78.6581C44.7591 78.5802 45.5425 78.4882 45.9552 78.4112L46.0653 78.3816C46.1239 78.3561 46.1794 78.3374 46.2347 78.3111C49.2255 77.889 52.0963 77.1707 54.7637 76.1775C58.3262 74.8491 61.6193 73.0426 64.548 70.8051C68.0404 68.1377 70.992 64.8876 73.3133 61.138C75.6172 57.4335 77.2062 53.4775 78.0449 49.3849C78.3244 48.0277 78.5132 46.6362 78.6925 45.2904C78.777 44.6643 78.8625 44.0391 78.9583 43.4134C78.9728 43.2918 79.0014 43.1706 79.0277 43.0455L79.069 42.8504L79.0832 37.7611L79.0794 37.6874ZM48.0155 12.0845V11.4738L48.0373 12.0845C50.9482 12.0951 53.3987 14.5573 53.387 17.46C53.3729 20.3636 50.9261 22.8217 48.0261 22.8217C45.123 22.8149 42.6765 20.3522 42.6798 17.4461C42.6835 14.5392 45.1265 12.0845 48.0155 12.0845ZM53.9545 70.3923C51.9118 73.4909 49.2037 75.7576 45.9134 77.1302C45.1886 77.2295 44.4377 77.3139 43.6915 77.3804C41.0748 77.612 38.3452 77.5826 35.5595 77.2991C34.5805 77.1267 33.6242 76.9864 32.7002 76.8542C32.1958 76.7808 31.6992 76.71 31.2062 76.6335C28.3578 76.0448 25.5912 75.1463 22.9858 73.9619C20.1411 72.674 17.4882 71.0517 15.1005 69.1375C12.926 67.4014 10.9749 65.4432 9.29345 63.3238C7.27302 60.7701 5.61012 57.9553 4.34493 54.9563C3.15961 52.1342 2.36454 49.4212 1.9234 46.6695C1.75409 45.6173 1.62533 44.5351 1.49664 43.4866C1.4374 43.0152 1.37859 42.5407 1.31647 42.0654V37.5873C1.32 37.5729 1.32704 37.5543 1.33107 37.5404C1.35982 37.4299 1.39721 37.2938 1.40799 37.1426C1.65078 34.0552 2.23585 31.0603 3.1448 28.2375C4.31509 24.5951 6.02976 21.1545 8.23439 18.0121C10.916 14.2001 14.2316 10.9027 18.0989 8.20546C21.2124 6.03419 24.5789 4.34541 28.0927 3.17886C28.6892 3.00595 29.2968 2.84721 29.9115 2.68581C30.2168 2.60529 30.5213 2.52441 30.8266 2.44302C30.7464 3.09481 30.6652 3.731 30.5807 4.36755C30.3191 6.41365 30.0691 8.3417 29.8484 10.2989C29.4661 13.6809 29.1375 17.6921 29.6237 21.8128C30.0399 25.3851 31.0034 28.363 32.5635 30.9131C34.0582 33.3559 35.92 35.4311 38.1058 37.0796C40.2982 38.7432 42.5912 40.336 44.9164 41.8188C45.6593 42.2905 46.4659 42.636 47.2495 42.9676C47.794 43.2028 48.3094 43.4203 48.8023 43.6807C52.0698 45.3922 54.425 47.4564 56.007 49.9955C57.4379 52.281 58.1111 54.8864 58.0157 57.7262C57.8616 62.2826 56.4968 66.5436 53.9545 70.3923Z" fill="black"/>
<path d="M32.1921 49.9702H32.1112C28.479 49.9702 25.6536 52.741 25.5362 56.4282C25.4442 60.001 28.3508 62.9893 32.0154 63.0883C32.0709 63.0918 32.126 63.0918 32.1852 63.0918C35.6879 63.0918 38.5877 60.1707 38.651 56.5754C38.6802 54.8528 38.0248 53.2123 36.8025 51.9577C35.5774 50.6954 33.9404 49.9887 32.1921 49.9702Z" fill="black"/>
</svg>
