<svg width="76" height="76" viewBox="0 0 76 76" fill="none" xmlns="http://www.w3.org/2000/svg">
<path d="M61.536 32.7592C60.2671 28.897 57.5429 26.7706 53.8666 26.7706C52.9567 26.7706 52.0042 26.9057 51.0316 27.1723C48.7575 27.7976 47.1432 29.3815 46.0982 32.0123C45.8237 32.7047 45.6079 33.4229 45.3981 34.1197L45.3875 34.1518C45.3253 34.3593 45.2627 34.5672 45.1982 34.7771C44.9922 34.7629 44.7865 34.7569 44.5867 34.7569C41.0616 34.7569 38.3678 36.8493 36.1198 38.8432C35.9827 38.669 35.8559 38.5019 35.7425 38.3262C35.7164 38.2838 35.6981 38.2314 35.6921 38.2034C36.3479 36.6397 36.5235 34.9038 36.2268 32.8982C35.6678 29.1189 33.7832 26.431 30.6275 24.9138C29.1987 24.2277 27.6471 23.8807 26.0109 23.8807C25.022 23.8807 23.9786 24.0075 22.9156 24.2598C22.0638 24.4637 21.2568 24.7224 20.4032 24.9947L20.3406 25.0164C19.9855 25.1299 19.6181 25.2469 19.2531 25.358L18.8296 25.4848L21.4183 31.7826L21.7898 31.6269C21.8483 31.6029 21.8988 31.5828 21.9449 31.5646C22.0357 31.526 22.1143 31.496 22.1932 31.4556C22.2619 31.4234 22.3264 31.387 22.393 31.3528L22.4152 31.3404C22.4798 31.3061 22.5444 31.2699 22.613 31.2377C24.9314 30.1362 26.8886 29.6232 28.7733 29.6232C29.3163 29.6232 29.8631 29.668 30.3955 29.7545C31.7474 29.9744 32.5728 30.61 32.9219 31.6979C33.2871 32.8477 33.2166 34.0303 32.7059 35.213C32.0278 36.7888 30.7728 37.9248 28.6401 38.8994C28.0246 39.18 27.3948 39.4219 26.7213 39.6799C26.4145 39.797 26.1035 39.9187 25.7869 40.0432L25.4076 40.1949L27.9986 46.3207L28.3737 46.1494C30.5772 45.1425 32.3934 43.6556 34.0803 41.48C37.2157 44.832 38.6123 48.3707 38.346 52.2976C38.0895 56.0628 35.1597 58.7966 31.3803 58.7966C31.324 58.7966 31.2653 58.7945 31.207 58.7945C27.9359 58.7241 25.0888 57.3763 22.5042 54.6685C19.4551 51.4763 17.3869 47.3293 16.1782 41.9984C16.0408 41.3833 15.92 40.7777 15.7928 40.1317C15.7321 39.8353 15.6737 39.5346 15.6113 39.2322L15.5223 38.7965L13 39.5891L13.0286 39.91C13.236 42.3655 13.6315 44.5975 14.239 46.7321C15.8046 52.2243 18.412 56.5283 22.2153 59.8941C25.357 62.6732 28.8922 64.0834 32.724 64.0834C33.6338 64.0834 34.5742 64.0006 35.5189 63.8456C37.601 63.4965 39.4513 62.5699 40.8661 61.1655C42.3852 59.6623 43.3218 57.6666 43.5759 55.3986C43.9046 52.4507 43.2652 49.5287 41.6204 46.4656C41.1583 45.6082 40.658 44.8072 40.1255 43.9577C39.9579 43.6897 39.7883 43.4171 39.6186 43.1443C40.7387 42.4081 41.9494 41.6859 43.3558 41.4454C43.6121 41.4032 43.846 41.3811 44.0559 41.3811C45.0366 41.3811 45.5269 41.8326 45.7489 42.9404C45.9951 44.1737 46.0276 45.4648 46.0577 46.7142C46.0636 46.9702 46.0696 47.2286 46.0736 47.4826C46.1098 49.2585 46.1464 51.0945 46.6146 52.8866C47.1976 55.1143 48.3982 56.4257 50.2869 56.894C51.0274 57.0797 51.7679 57.1728 52.4905 57.1728C53.8119 57.1728 55.0832 56.8618 56.2636 56.2525C58.6244 55.0316 60.2713 52.9335 61.4455 49.6501C62.101 47.8198 62.4685 45.7924 62.6017 43.2681C62.7572 40.3601 62.7752 36.5388 61.536 32.7592ZM49.3146 39.8518C49.3045 39.18 49.2721 38.4072 49.016 37.7106C48.8142 37.1578 48.5034 36.6494 48.1745 36.1065C48.0573 35.9148 47.9384 35.7153 47.8173 35.5074C48.6223 33.9536 49.9724 32.9527 51.7238 32.6078C52.1795 32.5189 52.6257 32.4747 53.0515 32.4747C55.037 32.4747 56.7197 33.4674 57.9186 35.35C58.9778 37.0091 59.551 39.5895 59.4499 42.2552C59.341 45.0777 58.4895 47.6161 57.1114 49.2225C56.0116 50.5019 54.7586 51.2258 53.2756 51.4381C53.0635 51.4681 52.8557 51.484 52.658 51.484C51.0843 51.4825 49.9886 50.5301 49.6492 48.8693C49.4579 47.927 49.3548 46.8899 49.3205 45.5038C49.2941 44.4768 49.3023 43.4313 49.3123 42.42V42.3904C49.3205 41.5587 49.3266 40.6989 49.3146 39.8518Z" fill="#FFFFFF"/>
<path d="M30.1694 20.5132L30.1815 20.525C30.8192 21.3061 31.4207 22.0445 32.0968 22.7425C34.5197 25.2609 37.4013 26.6048 40.662 26.738C40.8113 26.744 40.9588 26.7458 41.102 26.7458C45.18 26.7458 48.0875 24.3284 50.3958 21.9637L50.6984 21.653L45.5352 17.349L45.2807 17.6799C43.2848 20.2707 41.1724 21.4777 38.636 21.4777H38.4685C35.8231 21.4229 33.6541 20.2104 31.6424 17.6659L31.4002 17.3591L29.0233 19.1328L29.2995 19.4597C29.5964 19.8129 29.8891 20.168 30.1694 20.5132Z" fill="#FFFFFF"/>
<path d="M43.1885 15.9344L39.1729 12L35.5794 16.0514L39.4069 20.0549L43.1885 15.9344Z" fill="#FFFFFF"/>
<rect x="1.5" y="1.5" width="73" height="73" rx="7.5" stroke="#FFFFFF" stroke-width="3"/>
</svg>
