<svg width="21" height="28" viewBox="0 0 21 28" fill="none" xmlns="http://www.w3.org/2000/svg">
<path d="M14.3978 8.23436e-08H6.07958C5.9833 -4.55624e-05 5.88794 0.0188856 5.79898 0.0557121C5.71001 0.0925386 5.62917 0.146538 5.56109 0.214624C5.493 0.282709 5.439 0.363546 5.40218 0.452513C5.36535 0.54148 5.34642 0.636832 5.34646 0.73312V10.5189H2.10629C1.96863 10.5189 1.83375 10.5577 1.71708 10.6307C1.60041 10.7038 1.50667 10.8082 1.44659 10.9321C1.3865 11.0559 1.36251 11.1942 1.37735 11.3311C1.39219 11.4679 1.44526 11.5979 1.53049 11.706L9.66392 22.0182C9.73253 22.1052 9.81998 22.1756 9.91968 22.2239C10.0194 22.2723 10.1287 22.2974 10.2395 22.2974C10.3503 22.2974 10.4597 22.2723 10.5594 22.2239C10.6591 22.1756 10.7466 22.1052 10.8152 22.0182L18.9455 11.7056C19.0306 11.5975 19.0836 11.4676 19.0984 11.3308C19.1131 11.194 19.0891 11.0558 19.0291 10.932C18.969 10.8082 18.8753 10.7038 18.7587 10.6308C18.6421 10.5577 18.5073 10.519 18.3697 10.5189H15.1309V0.73312C15.1309 0.636832 15.112 0.54148 15.0752 0.452513C15.0383 0.363546 14.9843 0.282709 14.9163 0.214624C14.8482 0.146538 14.7673 0.0925386 14.6784 0.0557121C14.5894 0.0188856 14.4941 -4.55624e-05 14.3978 8.23436e-08ZM16.8586 11.9848L10.238 20.3818L3.61837 11.9848H6.07993C6.17622 11.9849 6.27157 11.9659 6.36054 11.9291C6.4495 11.8923 6.53034 11.8383 6.59843 11.7702C6.66651 11.7021 6.72051 11.6213 6.75734 11.5323C6.79417 11.4433 6.8131 11.348 6.81305 11.2517V1.46624H13.6643V11.2517C13.6643 11.348 13.6832 11.4433 13.72 11.5323C13.7568 11.6213 13.8108 11.7021 13.8789 11.7702C13.947 11.8383 14.0278 11.8923 14.1168 11.9291C14.2058 11.9659 14.3011 11.9849 14.3974 11.9848H16.8586Z" fill="white"/>
<path d="M8.23407e-08 26.5559C-4.55624e-05 26.6522 0.0188862 26.7475 0.0557128 26.8365C0.0925393 26.9255 0.146538 27.0063 0.214624 27.0744C0.282709 27.1425 0.363545 27.1965 0.452512 27.2333C0.541479 27.2701 0.636832 27.289 0.73312 27.289H19.7428C19.9373 27.289 20.1237 27.2118 20.2612 27.0743C20.3987 26.9368 20.476 26.7503 20.476 26.5559C20.476 26.3614 20.3987 26.175 20.2612 26.0375C20.1237 25.9 19.9373 25.8228 19.7428 25.8228H0.73312C0.636832 25.8227 0.541479 25.8416 0.452512 25.8785C0.363545 25.9153 0.282709 25.9693 0.214624 26.0374C0.146538 26.1055 0.0925393 26.1863 0.0557128 26.2753C0.0188862 26.3642 -4.55624e-05 26.4596 8.23407e-08 26.5559Z" fill="white"/>
</svg>
