<svg width="50" height="50" viewBox="0 0 50 50" fill="none" xmlns="http://www.w3.org/2000/svg">
<path d="M25 1.99998C24.8675 1.9981 24.7359 2.02259 24.613 2.072C24.49 2.12141 24.3781 2.19477 24.2837 2.28782C24.1893 2.38086 24.1144 2.49173 24.0632 2.61399C24.0121 2.73625 23.9858 2.86745 23.9858 2.99998C23.9858 3.1325 24.0121 3.26371 24.0632 3.38596C24.1144 3.50822 24.1893 3.61909 24.2837 3.71214C24.3781 3.80518 24.49 3.87854 24.613 3.92796C24.7359 3.97737 24.8675 4.00185 25 3.99998C36.6095 3.99998 46 13.3904 46 25C46 36.6095 36.6095 46 25 46C13.3905 46 4 36.6095 4 25C4 18.3073 7.13071 12.3648 12 8.51951V15C11.9981 15.1325 12.0226 15.2641 12.072 15.387C12.1214 15.51 12.1948 15.6219 12.2878 15.7163C12.3809 15.8106 12.4918 15.8856 12.614 15.9367C12.7363 15.9879 12.8675 16.0142 13 16.0142C13.1325 16.0142 13.2637 15.9879 13.386 15.9367C13.5082 15.8856 13.6191 15.8106 13.7122 15.7163C13.8052 15.6219 13.8786 15.51 13.928 15.387C13.9774 15.2641 14.0019 15.1325 14 15V6.55076V4.99998H4C3.86749 4.9981 3.73593 5.02259 3.61296 5.072C3.48999 5.12141 3.37807 5.19477 3.2837 5.28782C3.18933 5.38086 3.11439 5.49173 3.06324 5.61399C3.0121 5.73625 2.98576 5.86745 2.98576 5.99998C2.98576 6.1325 3.0121 6.26371 3.06324 6.38596C3.11439 6.50822 3.18933 6.61909 3.2837 6.71214C3.37807 6.80518 3.48999 6.87854 3.61296 6.92796C3.73593 6.97737 3.86749 7.00185 4 6.99998H10.6992C5.40209 11.2148 2 17.7122 2 25C2 37.6904 12.3095 48 25 48C37.6905 48 48 37.6904 48 25C48 12.3095 37.6905 1.99998 25 1.99998Z" fill="white"/>
</svg>
